<svg width="162" height="29" viewBox="0 0 162 29" fill="none" xmlns="http://www.w3.org/2000/svg">
    <path
        d="M20.6196 20.2396C20.6196 24.7858 16.4726 27.3308 10.69 27.3308H0.726517C0.291067 27.3308 7.62939e-06 27.1864 7.62939e-06 26.8954V26.7871C7.62939e-06 26.1328 1.30862 26.0606 1.30862 24.7858V4.05574C1.30862 2.78324 7.62939e-06 2.71105 7.62939e-06 2.01839V1.94619C7.62939e-06 1.65514 0.291067 1.51074 0.726517 1.51074H8.65486C14.5819 1.51074 18.1107 4.20239 18.1107 7.9477C18.1107 10.7477 16.22 12.785 13.2011 13.4754C18.0024 14.0936 20.6196 16.6409 20.6196 20.2396ZM4.58238 11.5125C4.58238 12.3496 5.1645 12.8956 6.00155 12.8956H9.78297C13.0206 12.8956 15.1302 11.041 15.1302 8.49596C15.1302 5.0417 12.5491 3.00435 8.58266 3.00435L5.71049 3.04045C5.05619 3.04045 4.61849 3.3676 4.61849 4.24075L4.58238 11.5125ZM17.2375 20.7856C17.2375 17.2952 14.3653 14.3847 8.9098 14.3847H4.61849V24.0954C4.61849 25.1491 5.23668 25.8417 6.14594 25.8417H10.4012C14.5819 25.8417 17.2375 24.2037 17.2375 20.7856Z"
        fill="#292A2B" />
    <path
        d="M22.5464 26.8593V26.7149C22.5464 26.0245 23.855 26.0245 23.855 24.752V13.9132C23.855 12.494 22.5464 12.203 22.5464 11.6592V11.587C22.5464 11.3321 22.7652 11.2238 23.0924 11.041L25.8923 9.65795C26.6549 9.2947 27.0205 9.65795 27.0205 10.1679V24.752C27.0205 26.0245 28.4757 26.0245 28.4757 26.7149V26.8593C28.4757 27.1504 28.1486 27.3331 27.7131 27.3331H23.239C22.8013 27.3331 22.5464 27.1504 22.5464 26.8593ZM22.9119 4.16633C22.9119 2.82163 23.8572 1.87402 25.3486 1.87402C26.7678 1.87402 27.7131 2.81937 27.7131 4.16633C27.7131 5.51103 26.7678 6.42029 25.3486 6.42029C23.8572 6.42029 22.9119 5.51103 22.9119 4.16633Z"
        fill="#292A2B" />
    <path
        d="M42.8411 12.3114C42.8411 13.2567 42.4056 14.0216 41.3858 14.0216C39.4951 14.0216 40.4044 11.4766 38.1482 11.4766C36.1469 11.4766 35.0571 13.7666 35.0571 16.4944V24.786C35.0571 26.0585 36.5846 26.0946 36.5846 26.7489V26.8933C36.5846 27.1843 36.3296 27.3287 35.8581 27.3287H31.3479C30.8741 27.3287 30.6214 27.1843 30.6214 26.8933V26.7489C30.6214 26.0946 31.9661 26.0585 31.9661 24.786V13.7305C31.9661 12.3497 30.5109 12.3114 30.5109 11.621V11.5488C30.5109 11.2938 30.7297 11.075 31.0569 10.8945L33.8207 9.65808C34.5111 9.33093 34.7661 9.62198 34.7661 10.168V13.0785C35.567 10.7501 37.2389 9.51367 39.4951 9.51367C41.6769 9.51142 42.8411 10.7839 42.8411 12.3114Z"
        fill="#292A2B" />
    <path
        d="M61.315 26.8228V26.9311C61.315 27.186 61.1323 27.3304 60.769 27.3304H57.7141C57.3509 27.3304 57.132 27.0755 57.0959 26.7483L57.0237 24.9298C55.7873 26.7483 53.6416 27.6937 51.496 27.6937C47.058 27.6937 43.0938 24.0928 43.0938 18.565C43.0938 13.2562 46.767 9.50863 51.6043 9.50863C53.8221 9.50863 55.6407 10.454 56.8771 11.8731V3.9448C56.8771 2.41735 55.3496 2.45344 55.3496 1.79914V1.72694C55.3496 1.43589 55.5684 1.25314 55.8956 1.10874L58.8422 0.127296C59.6048 -0.163755 59.9703 0.0550937 59.9703 0.673295V24.7854C59.9703 26.0963 61.315 26.2046 61.315 26.8228ZM56.8793 21.259H56.9154L56.8793 19.4044V15.7674C56.8793 13.4389 54.5509 10.6751 51.5704 10.6751C48.4433 10.6751 46.2616 13.4028 46.2232 17.4753C46.151 22.457 48.6238 26.4573 52.2608 26.4956C54.332 26.4956 56.8793 24.7493 56.8793 21.259Z"
        fill="#292A2B" />
    <path
        d="M87.0268 1.9821V2.0543C87.0268 2.7086 85.5716 2.7447 85.5716 4.05556V26.3492C85.5716 26.9674 85.2444 27.3306 84.6623 27.3306H83.7531C83.3898 27.3306 83.0627 27.1118 82.5889 26.3853L67.0593 5.21977V24.6773C67.0593 26.022 68.6229 26.1326 68.6229 26.823V26.8952C68.6229 27.1862 68.2958 27.3306 67.8603 27.3306H64.5504C64.0766 27.3306 63.8239 27.1862 63.8239 26.8952V26.823C63.8239 26.1326 65.207 26.022 65.207 24.6773V4.09167C65.207 2.81916 63.8239 2.81916 63.8239 2.12876V1.98436C63.8239 1.69331 64.0789 1.51056 64.5504 1.51056H67.3143C67.8964 1.51056 68.2958 1.7655 68.6229 2.23705L83.717 23.1138V4.05556C83.717 2.74696 82.2256 2.71086 82.2256 2.0543V1.9821C82.2256 1.69105 82.5167 1.5083 82.9882 1.5083H86.2981C86.7358 1.51056 87.0268 1.6933 87.0268 1.9821Z"
        fill="#292A2B" />
    <path
        d="M104.702 22.4959C104.267 24.6777 101.866 27.6965 97.3197 27.6965C92.629 27.6965 88.8815 24.1317 88.8815 18.4596C88.8815 13.3312 92.6268 9.51367 97.4641 9.51367C101.828 9.51367 104.228 12.3858 104.228 14.897C104.228 16.0612 103.61 16.6794 102.518 17.0426L92.444 20.3525C93.2811 23.4796 95.4989 25.3703 98.4456 25.3703C101.137 25.3703 102.845 23.9512 103.646 22.2071C103.976 21.695 104.813 21.8055 104.702 22.4959ZM92.0469 17.2953C92.0469 17.9496 92.083 18.5679 92.1913 19.15L100.302 16.2394C100.921 15.9845 101.176 15.5851 101.176 14.9669C101.176 13.3312 99.4293 10.6756 96.9204 10.6756C93.9737 10.6756 92.0469 13.5861 92.0469 17.2953Z"
        fill="#292A2B" />
    <path
        d="M106.047 23.5132C106.047 22.64 106.629 22.1685 107.466 22.1685C109.72 22.1685 108.558 26.6064 113.431 26.6064C115.76 26.6064 117.578 25.4783 117.578 23.4071C117.578 18.0599 106.451 21.6608 106.451 14.4973C106.451 11.6974 109.287 9.51562 113.287 9.51562C117.797 9.51562 120.378 11.844 120.378 13.8069C120.378 14.5334 119.796 15.0794 119.07 15.0794C116.996 15.0794 117.905 10.6415 113.434 10.6415C111.324 10.6415 109.688 11.9862 109.688 13.8047C109.688 19.0414 120.78 15.4765 120.78 22.7506C120.78 25.4783 117.944 27.6601 113.434 27.6601C108.594 27.6601 106.047 25.2234 106.047 23.5132Z"
        fill="#292A2B" />
    <path
        d="M124.232 22.2048V11.3299H121.831C121.504 11.3299 121.285 11.111 121.285 10.7839V10.4206C121.285 10.0935 121.468 9.87461 121.831 9.87461H123.14C124.886 9.87461 125.721 8.49156 125.904 6.42035C125.94 5.94655 126.195 5.69385 126.522 5.69385H126.885C127.321 5.69385 127.467 5.94881 127.467 6.42035L127.503 9.87461H132.521C132.812 9.87461 133.067 10.1296 133.067 10.4206V10.7839C133.067 11.111 132.812 11.3299 132.521 11.3299H127.503V22.2409C127.503 24.2422 128.449 25.2958 129.796 25.2958C131.395 25.2958 132.341 24.3505 132.487 23.1141C132.706 22.5681 133.579 22.6042 133.579 23.2585C133.579 25.5124 131.833 27.6964 128.925 27.6964C126.123 27.6964 124.232 25.914 124.232 22.2048Z"
        fill="#292A2B" />
    <path
        d="M148.929 3.84922C148.929 3.84922 148.933 3.83427 148.935 3.82866L148.94 3.80811C148.94 3.80997 148.936 3.80997 148.936 3.81184C148.933 3.82492 148.931 3.83801 148.929 3.84922Z"
        fill="#292A2B" />
    <path d="M150.067 3.1181C150.059 3.11623 150.058 3.11623 150.067 3.1181Z" fill="#292A2B" />
    <path
        d="M149.949 3.1123H149.945C149.941 3.11612 149.945 3.11421 149.951 3.11421C149.951 3.11421 149.951 3.11994 149.949 3.1123Z"
        fill="#292A2B" />
    <path
        d="M149.956 3.11426C149.954 3.11426 149.953 3.11426 149.953 3.11426L149.954 3.11802C149.956 3.11802 149.958 3.1199 149.96 3.1199L149.956 3.11426Z"
        fill="#292A2B" />
    <path
        d="M149.193 4.87802C149.208 4.89114 149.236 4.91739 149.255 4.93426C149.274 4.95301 149.313 4.98863 149.347 5.00925C149.46 5.08611 149.523 5.11423 149.636 5.14423C149.752 5.1686 149.844 5.18921 150.016 5.18172C150.095 5.18172 150.239 5.14423 150.324 5.09173C150.457 5.02987 150.547 4.97363 150.612 4.90052C150.642 4.87427 150.691 4.81616 150.691 4.81616L150.687 4.81803H150.686L150.687 4.81616L150.691 4.81241L150.701 4.80491L150.717 4.78616C150.723 4.77867 150.727 4.77117 150.732 4.76367L150.738 4.75992C150.751 4.74867 150.764 4.73367 150.776 4.72055C150.77 4.72617 150.761 4.72617 150.751 4.72992C150.753 4.7243 150.755 4.7168 150.757 4.71118C150.789 4.68681 150.821 4.66056 150.854 4.63432C150.871 4.6137 150.875 4.57807 150.888 4.54995C150.89 4.54808 150.892 4.54433 150.897 4.54245C150.918 4.51996 150.926 4.50684 150.935 4.49184C150.942 4.47684 150.95 4.46185 150.959 4.43373C150.961 4.42435 150.961 4.40373 150.963 4.38686C150.972 4.38686 150.98 4.37936 150.974 4.35499C150.974 4.35311 150.974 4.35124 150.974 4.34936C150.987 4.32124 150.993 4.29688 150.995 4.2875L150.999 4.23876C150.999 4.22939 150.997 4.24439 150.984 4.25751C150.989 4.24439 150.991 4.23126 150.993 4.21814L150.997 4.22001L150.999 4.21627L151.002 4.20689C151.006 4.19377 151.01 4.17877 151.012 4.15815C151.016 4.12441 151.004 4.06817 150.972 4.02318C150.976 4.01568 150.982 4.01006 150.986 4.00256C150.989 4.00818 150.995 4.01005 150.999 4.01567C151.012 4.04192 151.016 4.06442 151.016 4.07941C151.016 4.08879 151.016 4.06629 151.014 4.06067L151.008 4.00818L151.001 3.95944L150.999 3.95381C150.999 3.95194 150.999 3.95194 150.999 3.95007C150.999 3.94819 150.999 3.94819 150.999 3.94819C151.001 3.94632 151.001 3.94631 150.999 3.94631C151.004 3.89007 150.995 3.86008 150.997 3.85633L150.986 3.81321L150.982 3.80009V3.79634L150.976 3.76447C150.974 3.75322 150.965 3.74573 150.961 3.73635L150.957 3.71011C150.952 3.69136 150.948 3.67449 150.944 3.65949C150.937 3.63512 150.929 3.61637 150.92 3.5995C150.914 3.592 150.912 3.58263 150.89 3.55451C150.875 3.51514 150.858 3.4889 150.837 3.46078L150.807 3.43078C150.783 3.41953 150.794 3.40266 150.691 3.37454L150.746 3.36517C150.714 3.3408 150.657 3.32768 150.62 3.32205C150.592 3.32018 150.564 3.32393 150.524 3.33892C150.474 3.3483 150.419 3.39704 150.389 3.44953L150.388 3.45141L150.393 3.43828L150.354 3.42328C150.35 3.42328 150.346 3.42141 150.343 3.42141L150.341 3.41766L150.335 3.41953C150.333 3.41953 150.329 3.41953 150.326 3.41766V3.41391L150.337 3.41203L150.335 3.40641L150.333 3.39516L150.331 3.38579C150.333 3.37454 150.333 3.36142 150.328 3.3483C150.329 3.32392 150.32 3.28643 150.284 3.23957C150.241 3.15521 150.148 3.13646 150.187 3.14958C150.179 3.15708 150.196 3.14771 150.191 3.16083L150.179 3.15333L150.153 3.14021C150.134 3.13084 150.112 3.12521 150.091 3.12146C150.074 3.12334 150.069 3.12146 150.063 3.11959C150.067 3.12146 150.071 3.12521 150.076 3.13271C150.063 3.12521 150.054 3.11584 150.037 3.11209C150.02 3.10834 150.003 3.10834 149.988 3.10834L149.968 3.11022L149.958 3.11209H149.956H149.954C149.971 3.11022 149.996 3.11209 150.005 3.14021C149.988 3.12896 149.973 3.12334 149.954 3.11772L149.956 3.12334L149.951 3.12146C149.951 3.12146 149.949 3.11771 149.949 3.11584C149.939 3.11396 149.928 3.10647 149.919 3.10647C149.902 3.10459 149.891 3.10834 149.878 3.11022C149.868 3.11022 149.859 3.10646 149.849 3.10834C149.834 3.11021 149.821 3.11209 149.81 3.11584L149.793 3.12146C149.754 3.12521 149.72 3.13083 149.688 3.13646C149.666 3.13083 149.641 3.13084 149.619 3.13833C149.617 3.13833 149.617 3.14021 149.613 3.14021C149.6 3.14209 149.583 3.13646 149.576 3.14208L149.55 3.15333C149.525 3.15333 149.51 3.15896 149.493 3.15896C149.473 3.16458 149.456 3.17395 149.441 3.18332C149.435 3.18707 149.428 3.19458 149.422 3.2002C149.42 3.2002 149.416 3.2002 149.415 3.2002C149.375 3.2077 149.368 3.2152 149.355 3.22082C149.338 3.23019 149.332 3.23582 149.326 3.23957C149.281 3.26394 149.24 3.29956 149.233 3.32205C149.223 3.3408 149.218 3.35392 149.216 3.36517L149.214 3.37079C149.205 3.37267 149.201 3.37454 149.201 3.37641C149.201 3.37266 149.199 3.36892 149.199 3.36517C149.191 3.35579 149.221 3.31643 149.191 3.35017C149.169 3.37267 149.154 3.39329 149.141 3.41579C149.139 3.41766 149.137 3.41766 149.135 3.41953C149.124 3.43078 149.115 3.44016 149.107 3.44953L149.09 3.4739C149.085 3.48327 149.079 3.49264 149.075 3.50014C149.04 3.53201 149.021 3.56388 149.012 3.59013C149.01 3.59388 149.008 3.59763 149.002 3.60138L148.98 3.64074C148.961 3.68573 148.953 3.70073 148.942 3.76072C148.944 3.77385 148.938 3.7776 148.938 3.79634L148.937 3.80197C148.937 3.80009 148.938 3.80009 148.938 3.80009C148.938 3.81696 148.944 3.84321 148.957 3.89382L148.916 3.96318H148.914C148.916 3.93881 148.905 4.04192 148.907 4.10004C148.903 4.17877 148.912 4.26501 148.912 4.26501C148.914 4.27438 148.925 4.33999 148.94 4.42248C148.957 4.51059 149.008 4.60432 149.019 4.62494C149.032 4.64744 149.055 4.68493 149.07 4.71118C149.085 4.73742 149.109 4.77679 149.124 4.80304C149.145 4.8349 149.18 4.86302 149.193 4.87802ZM149.825 3.19832C149.827 3.2077 149.825 3.22082 149.821 3.23207L149.819 3.23581L149.818 3.23769L149.823 3.1927L149.825 3.19832ZM150.792 4.37187L150.798 4.36999L150.804 4.36811L150.817 4.36624L150.843 4.36249C150.847 4.36061 150.852 4.36249 150.856 4.36249V4.36436L150.792 4.37187ZM150.168 3.39141L150.17 3.38954L150.176 3.38579H150.178L150.168 3.39141ZM150.024 3.26394L150.048 3.24519L150.029 3.26019L150.024 3.26394ZM150.858 3.81134C150.856 3.81134 150.856 3.81134 150.858 3.81134ZM150.099 3.27143L150.095 3.27331L150.093 3.27519L150.104 3.26206C150.103 3.26581 150.103 3.26581 150.099 3.27143ZM149.906 3.24894H149.902H149.9H149.898L149.902 3.24331L149.906 3.24894ZM150.633 4.74867L150.629 4.74304L150.642 4.76179L150.633 4.74867ZM150.901 3.95194C150.89 3.94631 150.884 3.94444 150.875 3.94069C150.879 3.93694 150.881 3.92944 150.884 3.92569C150.897 3.92757 150.912 3.93319 150.927 3.94069C150.931 3.94256 150.931 3.94632 150.933 3.94819C150.922 3.95006 150.912 3.95006 150.901 3.95194ZM149.984 3.21332L149.983 3.20957L149.964 3.15521L149.966 3.15146L149.984 3.21332Z"
        fill="#292A2B" />
    <path
        d="M150.796 4.69443C150.791 4.70384 150.781 4.70947 150.774 4.71888C150.789 4.70571 150.796 4.69067 150.796 4.69443Z"
        fill="#292A2B" />
    <path d="M151.592 21.4592L151.587 21.4561C151.59 21.4592 151.592 21.4592 151.592 21.4592Z" fill="#292A2B" />
    <path
        d="M148.545 28.1958C148.543 28.1958 148.543 28.1958 148.541 28.1958C148.535 28.2014 148.539 28.2014 148.545 28.1958Z"
        fill="#292A2B" />
    <path
        d="M147.596 21.812L147.594 21.8139L147.602 21.8214C147.602 21.8195 147.602 21.8195 147.602 21.8177L147.596 21.812Z"
        fill="#292A2B" />
    <path
        d="M148.758 22.2266C148.757 22.2322 148.753 22.2435 148.751 22.251C148.751 22.251 148.751 22.251 148.751 22.2491L148.758 22.2266Z"
        fill="#292A2B" />
    <path
        d="M161.69 14.897C161.63 14.8145 161.48 14.6626 161.326 14.5876C161.157 14.5033 161.032 14.4639 160.869 14.3889L160.603 14.2708L160.286 14.1246C160.28 14.1208 160.141 14.0552 159.922 13.9503C159.813 13.8959 159.684 13.8303 159.541 13.759C159.481 13.7272 159.418 13.6953 159.354 13.6616C159.288 13.6241 159.159 13.5547 159.097 13.5135C157.8 12.743 157.324 12.3362 156.999 12.0775C156.911 11.9912 156.491 11.6575 156.325 11.4644C156.255 11.3913 156.176 11.307 156.148 11.277C156.103 11.2264 155.944 11.0651 155.79 10.8758C155.64 10.6827 155.49 10.4709 155.413 10.3453C155.335 10.2253 155.26 10.0922 155.215 10.0172C155.17 9.89348 155.132 9.75663 155.085 9.6404C155.085 9.6404 155.072 9.60479 155.082 9.63291C155.076 9.63853 155.082 9.64602 155.08 9.65165C155.08 9.64227 155.082 9.63665 155.078 9.61416C155.078 9.60666 155.07 9.59353 155.065 9.58229L155.063 9.55979L155.061 9.54667C155.061 9.54292 155.061 9.53917 155.061 9.53542C155.061 9.52792 155.059 9.5223 155.057 9.51667C155.061 9.43794 155.048 9.46231 155.048 9.43794C155.042 9.42482 155.039 9.41544 155.033 9.40607C155.033 9.39107 155.024 9.3667 155.014 9.34421C155.012 9.33671 155.012 9.32921 155.01 9.32358C155.01 9.32358 155.012 9.32171 155.01 9.32171C155.005 9.30484 154.999 9.29171 154.988 9.27672C154.988 9.27484 154.986 9.27297 154.986 9.27297L155.001 9.25422L154.988 9.24485L154.98 9.2411C154.98 9.23923 154.982 9.23548 154.982 9.2336C154.977 9.21111 154.986 9.20736 154.947 9.15299C154.943 9.13237 154.939 9.108 154.932 9.09113C154.932 9.09113 154.924 9.08175 154.924 9.07988C154.922 9.07238 154.922 9.06488 154.92 9.05926C154.917 9.04801 154.911 9.03676 154.905 9.02551C154.904 9.01989 154.904 9.01614 154.904 9.01052C154.9 8.99739 154.896 8.99177 154.892 8.9824C154.889 8.96553 154.887 8.9524 154.883 8.94116C154.875 8.91678 154.866 8.89991 154.855 8.87929C154.849 8.86991 154.842 8.85867 154.83 8.84555C154.829 8.83805 154.827 8.83243 154.825 8.82493C154.823 8.81555 154.819 8.80805 154.814 8.79868C154.812 8.79305 154.812 8.78931 154.81 8.78368C154.81 8.77993 154.812 8.77806 154.81 8.77244C154.8 8.74244 154.789 8.72557 154.778 8.71057C154.77 8.6787 154.748 8.63558 154.68 8.60371C154.673 8.62621 154.673 8.61496 154.675 8.60371C154.677 8.60184 154.68 8.59434 154.679 8.59809C154.701 8.59809 154.725 8.60934 154.74 8.62621C154.77 8.68245 154.742 8.62059 154.744 8.61121C154.725 8.53248 154.71 8.45562 154.695 8.37688C154.662 8.22128 154.649 8.06381 154.65 7.89884C154.654 7.77324 154.667 7.4583 154.89 7.12461C155.082 6.78154 155.385 6.41036 155.663 6.1704C155.685 6.15166 155.708 6.13103 155.721 6.12166C155.933 5.96981 156.126 5.84609 156.257 5.75985C156.797 5.39429 157.346 5.02123 157.384 4.99499C157.387 4.99124 157.393 4.98749 157.397 4.98562C157.402 4.98187 157.618 4.83564 157.879 4.65943C158.254 4.39322 158.501 4.27512 158.662 4.04828C158.717 3.99767 158.79 3.86644 158.82 3.78958C158.883 3.63773 158.928 3.4409 158.895 3.35841L158.891 3.34341L158.889 3.33966V3.33779L158.919 3.21968V3.21781V3.21219L158.917 3.18969C158.913 3.16157 158.912 3.13157 158.908 3.09783C158.878 2.91974 158.818 2.68728 158.617 2.45295C158.424 2.22424 158.147 2.14363 158.147 2.14363C158.109 2.12676 158.04 2.13051 157.982 2.12676C157.897 2.10613 157.918 2.12488 157.882 2.12113L157.772 2.12676L157.545 2.1455C157.438 2.14738 157.367 2.19049 157.309 2.20549L157.114 2.26923C156.141 2.54293 155.706 2.53356 155.43 2.58792C155.346 2.60104 154.986 2.63854 154.812 2.64791C154.744 2.65354 154.665 2.65916 154.635 2.66104C154.544 2.67228 154.019 2.68353 153.816 2.67978C153.762 2.67978 153.7 2.67978 153.648 2.67791H153.608C153.601 2.67791 153.586 2.67978 153.573 2.68165C153.559 2.67791 153.546 2.67791 153.531 2.67603C153.533 2.67603 153.537 2.67603 153.539 2.67791C153.543 2.68166 153.548 2.68166 153.554 2.68353C153.543 2.68541 153.533 2.68915 153.522 2.6929C153.498 2.68353 153.473 2.67228 153.449 2.67228C153.436 2.67228 153.428 2.67228 153.424 2.67415C153.391 2.66478 153.353 2.65728 153.316 2.65166C153.312 2.65166 153.314 2.65166 153.312 2.65166C153.31 2.64978 153.308 2.64978 153.306 2.64604L153.295 2.63666L153.282 2.65728C153.256 2.64604 153.233 2.64042 153.222 2.63854C153.171 2.63854 153.156 2.64416 153.145 2.64979L153.119 2.65354C153.117 2.65729 153.113 2.65916 153.106 2.65916C153.076 2.65166 153.051 2.64791 153.051 2.65354C153.038 2.65541 153.02 2.65916 152.999 2.66853C152.997 2.66853 152.997 2.66853 152.997 2.66853C152.98 2.66666 152.967 2.66853 152.954 2.67041C152.952 2.67041 152.952 2.66853 152.948 2.66853C152.935 2.66478 152.918 2.67228 152.903 2.67415L152.896 2.67228C152.888 2.67041 152.86 2.67228 152.825 2.68353C152.819 2.67791 152.811 2.67228 152.806 2.66666L152.804 2.66104L152.8 2.66291C152.785 2.64978 152.766 2.64042 152.751 2.63292C152.748 2.63104 152.74 2.62917 152.733 2.62542C152.72 2.61042 152.706 2.60105 152.699 2.59542C152.669 2.57668 152.658 2.57668 152.646 2.57293L152.635 2.57105C152.607 2.5523 152.575 2.53918 152.594 2.54293L152.541 2.49981C152.45 2.42295 152.35 2.34046 152.243 2.25236C151.805 1.90179 151.295 1.46125 150.714 1.05633C149.705 0.394569 148.848 0.454555 148.22 0.578283C147.577 0.735755 147.022 0.923225 146.28 1.42001C145.87 1.71621 145.646 1.96553 145.44 2.23548C145.24 2.51106 145.06 2.82038 144.9 3.33779C144.808 3.67523 144.687 4.09327 144.754 5.26494C144.816 6.35974 144.84 6.79091 144.861 7.16772C144.874 7.37956 144.902 7.86697 144.925 8.25127C144.947 8.63558 144.968 9.01426 144.973 9.09675C144.975 9.14174 144.981 9.28234 144.99 9.45856C144.951 9.44918 144.915 9.44919 144.902 9.45293H144.9C144.872 9.44731 144.85 9.44544 144.876 9.44731L144.833 9.43419C144.694 9.37795 144.55 9.31984 144.405 9.26172C144.164 9.16424 143.969 9.0855 143.8 9.01614C143.641 8.92803 143.506 8.85492 143.378 8.78368C143.114 8.65433 142.923 8.48561 142.617 8.25878C142.285 7.98695 142.223 7.87447 141.965 7.49766C141.895 7.36269 141.792 7.22771 141.586 6.74967C141.4 6.29788 141.361 6.09916 141.299 5.93982C141.297 5.93607 141.297 5.93419 141.297 5.93419C141.269 5.88733 141.267 5.7936 141.157 5.64737C141.138 5.62113 141.115 5.58926 141.089 5.55176C141.083 5.53114 140.979 5.41679 140.964 5.41304C140.917 5.3643 140.78 5.26869 140.694 5.22932C140.604 5.18995 140.534 5.17496 140.51 5.16934C140.467 5.15434 140.217 5.11684 139.994 5.21058C139.766 5.29306 139.574 5.50677 139.516 5.59488C139.409 5.75985 139.376 5.82546 139.31 6.0223C139.261 6.1629 139.233 6.30538 139.207 6.46097C139.149 6.77592 139.083 7.13398 139.04 7.61014C139.023 7.90447 138.995 8.16692 139.001 8.36376C139.003 8.5606 139.012 8.68433 139.012 8.68433C139.012 8.68433 139.029 9.078 139.145 9.54667C139.291 10.0078 139.479 10.4784 139.565 10.5871C139.591 10.634 139.661 10.7521 139.676 10.7708C139.676 10.7614 139.679 10.7802 139.677 10.7839C139.627 10.8589 139.483 11.127 139.434 11.2657C139.372 11.412 139.312 11.6107 139.295 11.7138C139.273 11.8113 139.233 11.995 139.205 12.1206C139.162 12.2293 139.138 12.5461 139.194 12.7805C139.338 13.281 139.52 13.5285 139.704 13.7422L139.707 13.7459C139.711 13.7497 139.715 13.7534 139.715 13.7534C139.737 13.7778 139.752 13.7928 139.767 13.8078C139.812 13.8396 139.792 13.8528 139.794 13.8903C139.797 13.924 139.775 14.029 139.766 14.104C139.726 14.4002 139.655 14.7076 139.704 15.0526C139.754 15.3919 139.871 15.7331 140.131 16.1324C140.384 16.4923 140.932 17.0359 141.402 17.304C142.073 17.7015 142.733 17.7539 143.187 17.8777C143.196 17.8777 143.206 17.8739 143.215 17.872C143.23 17.8777 143.245 17.8814 143.254 17.8814C143.284 17.8758 143.301 17.8795 143.305 17.8683L143.311 17.8702L143.337 17.8777C143.352 17.8777 143.354 17.887 143.414 17.8795C143.425 17.8758 143.446 17.8683 143.472 17.8514C143.472 17.8552 143.474 17.8589 143.474 17.8627C143.455 17.872 143.434 17.8758 143.429 17.8758L143.455 17.872L143.476 17.8683C143.534 18.1832 143.639 18.5619 143.821 18.9481C144.248 19.9098 145.062 20.6147 145.3 20.8003C145.519 20.984 145.956 21.2239 146.244 21.342C146.531 21.4695 147.034 21.627 147.36 21.6945C147.446 21.7151 147.542 21.7339 147.639 21.7507C147.635 21.7582 147.634 21.7657 147.63 21.7732C147.613 21.7845 147.602 21.7938 147.594 21.7995L147.611 21.8182L147.617 21.8126C147.617 21.8163 147.617 21.8201 147.617 21.8238L147.645 21.8538L147.643 21.8557L147.617 21.8276C147.613 21.8482 147.609 21.8688 147.613 21.8894C147.615 21.8988 147.615 21.9082 147.617 21.9251C147.609 21.9251 147.605 21.9251 147.617 21.9251C147.617 21.9288 147.619 21.9326 147.62 21.9363C147.617 21.9476 147.607 21.9569 147.607 21.9663C147.607 22.0001 147.609 22.0151 147.611 22.0226C147.607 22.0544 147.605 22.0788 147.605 22.0582L147.592 22.1069C147.572 22.1856 147.555 22.2513 147.538 22.3131C147.506 22.4387 147.47 22.5475 147.416 22.7124C147.354 22.8905 147.337 22.943 147.264 23.153C147.24 23.2261 147.217 23.2954 147.144 23.5148C147.079 23.7266 147.041 23.8091 147.013 23.8803C146.996 23.9216 146.961 24.0153 146.934 24.0865C146.906 24.1559 146.88 24.2253 146.871 24.2478C146.863 24.2684 146.835 24.3359 146.809 24.4034C146.782 24.4727 146.749 24.559 146.734 24.5965C146.653 24.7989 146.574 25.0183 146.441 25.4007C146.357 25.6369 146.291 25.8206 146.288 25.83C146.284 25.8394 146.233 25.9875 146.169 26.1749C146.106 26.3624 146.04 26.5592 146.021 26.6155C146.004 26.668 145.976 26.7598 145.96 26.8179C145.941 26.8779 145.911 26.9754 145.89 27.0373C145.871 27.0991 145.845 27.1816 145.832 27.2247C145.821 27.2641 145.798 27.3391 145.783 27.3916C145.763 27.4722 145.72 27.6353 145.688 27.759C145.564 28.1246 145.622 28.2033 145.856 28.1939C145.924 28.2089 146.033 28.1789 146.143 28.1621C146.554 28.0946 146.648 28.0515 147.054 28.0346C147.225 28.0233 147.547 28.044 147.769 28.0627C147.849 28.0702 147.926 28.0777 147.997 28.0852L148.102 28.0983L148.123 28.1002C148.113 28.0983 148.102 28.0927 148.093 28.0852L148.087 28.0777L148.089 28.0758L148.091 28.0777C148.099 28.0833 148.106 28.0908 148.138 28.104C148.143 28.1077 148.162 28.1058 148.173 28.1077C148.173 28.1077 148.173 28.1077 148.173 28.1096C148.181 28.1152 148.188 28.1171 148.196 28.1227C148.198 28.1246 148.2 28.1283 148.202 28.1283C148.203 28.1283 148.203 28.1302 148.205 28.1302C148.22 28.1414 148.243 28.1508 148.243 28.1508C148.275 28.1583 148.29 28.1621 148.303 28.1639C148.32 28.1733 148.342 28.1789 148.391 28.1827C148.393 28.1827 148.395 28.1808 148.397 28.1808H148.408C148.436 28.1902 148.455 28.1902 148.464 28.1921H148.479H148.485H148.487C148.487 28.1958 148.487 28.1958 148.487 28.1921C148.498 28.1958 148.513 28.1939 148.528 28.1939C148.528 28.1939 148.528 28.1939 148.53 28.1939C148.541 28.1939 148.554 28.1921 148.567 28.1883C148.563 28.1921 148.56 28.1977 148.556 28.1996C148.573 28.2014 148.59 28.1996 148.607 28.1996C148.638 28.2071 148.646 28.2071 148.661 28.2089H148.7L148.721 28.2071C148.723 28.2071 148.723 28.2071 148.723 28.2071C148.725 28.2071 148.727 28.2052 148.728 28.2052L148.736 28.2033L148.742 28.2052L148.785 28.2108C148.8 28.2071 148.79 28.2164 148.826 28.2089C148.837 28.2108 148.852 28.2127 148.861 28.2127C148.871 28.2108 148.88 28.2089 148.89 28.2071C148.895 28.2071 148.899 28.2071 148.905 28.2052C148.905 28.2164 148.903 28.2164 148.905 28.2052C148.916 28.2033 148.933 28.1958 148.948 28.1902C148.948 28.1902 148.948 28.1902 148.95 28.1902C148.951 28.1902 148.953 28.1864 148.955 28.1864C148.961 28.1846 148.966 28.1827 148.972 28.1789C148.996 28.1733 149.03 28.1564 149.066 28.104C149.086 28.0833 149.094 28.0721 149.101 28.0608C149.109 28.0477 149.115 28.0346 149.12 28.0177C149.12 28.0158 149.122 28.0102 149.122 28.0083L149.133 27.9765C149.137 27.9709 149.141 27.9671 149.145 27.9577C149.154 27.9596 149.16 27.9615 149.145 27.9559C149.146 27.954 149.146 27.9521 149.146 27.9502C149.163 27.9484 149.161 27.9484 149.146 27.9502C149.146 27.9484 149.146 27.9465 149.146 27.9446C149.148 27.9427 149.148 27.939 149.15 27.9371C149.158 27.9165 149.16 27.9109 149.161 27.9034C149.165 27.8827 149.163 27.8752 149.163 27.8584C149.163 27.8584 149.163 27.8565 149.165 27.8565C149.165 27.8565 149.165 27.8565 149.165 27.8546C149.176 27.834 149.18 27.8153 149.186 27.8059C149.188 27.7909 149.188 27.7796 149.19 27.7684L149.212 27.7571L149.21 27.7534L149.206 27.7478L149.199 27.7365C149.212 27.7065 149.22 27.6747 149.212 27.6522L149.21 27.6353V27.6334C149.218 27.6315 149.206 27.6334 149.19 27.6372C149.19 27.6353 149.19 27.6353 149.191 27.6334C149.21 27.6315 149.214 27.6297 149.214 27.6297V27.6147V27.5865L149.212 27.5622C149.21 27.5566 149.21 27.5528 149.208 27.5434C149.214 27.5097 149.216 27.4853 149.212 27.4497C149.212 27.4422 149.216 27.431 149.216 27.4253C149.214 27.4066 149.212 27.3935 149.21 27.3822C149.21 27.3785 149.208 27.3766 149.208 27.3747C149.208 27.371 149.205 27.3653 149.203 27.3616C149.203 27.3597 149.201 27.356 149.201 27.3541C149.214 27.3147 149.218 27.2716 149.199 27.2285V27.2266C149.199 27.2247 149.199 27.2229 149.199 27.221C149.197 27.2154 149.195 27.2154 149.191 27.2116C149.188 27.2022 149.186 27.1985 149.182 27.191C149.169 27.1516 149.154 27.1235 149.137 27.1085C149.13 27.0991 149.126 27.0954 149.118 27.0879C149.111 27.0766 149.098 27.071 149.085 27.0598C149.081 27.0579 149.073 27.0485 149.071 27.0485C149.07 27.0485 149.07 27.0485 149.07 27.0485C149.053 27.0335 149.038 27.026 149.032 27.0223C149.008 27.011 149.002 27.0092 148.995 27.0073L148.983 27.0054C148.976 27.0017 148.972 26.996 148.965 26.9923C148.933 26.9792 148.895 26.9773 148.858 26.9829C148.856 26.9829 148.854 26.981 148.852 26.981C148.839 26.9754 148.828 26.9642 148.816 26.9623C148.816 26.9623 148.813 26.9623 148.811 26.9623C148.811 26.9379 148.809 26.9417 148.809 26.9623C148.8 26.9623 148.783 26.9585 148.757 26.9642C148.73 26.9585 148.7 26.9492 148.685 26.9585C148.682 26.9604 148.682 26.9604 148.68 26.9623C148.668 26.9567 148.667 26.9567 148.659 26.9548C148.657 26.9529 148.659 26.9548 148.657 26.951C148.655 26.951 148.65 26.951 148.648 26.951C148.642 26.9492 148.633 26.9454 148.629 26.9435C148.618 26.9417 148.612 26.9417 148.603 26.9417C148.575 26.9323 148.571 26.9417 148.55 26.9323C148.53 26.9304 148.513 26.9304 148.494 26.9323L148.458 26.9379L148.453 26.9398C148.438 26.936 148.427 26.9323 148.408 26.9323C148.404 26.9304 148.402 26.9285 148.397 26.9285C148.393 26.9285 148.391 26.9285 148.387 26.9285C148.383 26.9285 148.383 26.9285 148.38 26.9285C148.329 26.9248 148.297 26.9304 148.277 26.9379C148.226 26.9454 148.177 26.9623 148.158 26.9848L148.153 26.9904C148.147 26.9829 148.153 26.9848 148.153 26.981C148.162 26.966 148.175 26.9529 148.19 26.9435C148.213 26.921 148.278 26.9285 148.254 26.9267L148.185 26.9173C148.097 26.906 148.022 26.8948 147.982 26.8892C147.77 26.8667 147.553 26.8386 147.38 26.8311C147.364 26.8292 147.351 26.8292 147.334 26.8292C147.337 26.8198 147.339 26.8123 147.343 26.8011C147.47 26.4486 147.529 26.3062 147.611 26.0999C147.694 25.8956 147.774 25.6819 147.877 25.3969C147.928 25.2845 147.868 25.3726 147.911 25.2732C147.935 25.2132 147.95 25.1757 147.95 25.172C147.952 25.1682 147.98 25.0895 148.027 24.9658C148.048 24.9039 148.072 24.8289 148.1 24.7464V24.7446V24.7427H148.098C148.11 24.7202 148.121 24.6958 148.13 24.6714L148.17 24.5515C148.38 23.9197 148.442 23.6273 148.483 23.4454C148.496 23.3836 148.548 23.1473 148.573 23.0405C148.582 22.9974 148.593 22.9468 148.599 22.9261C148.618 22.8455 148.697 22.5268 148.727 22.4012L148.74 22.3469L148.747 22.3094C148.749 22.3019 148.747 22.2944 148.747 22.2869C148.747 22.285 148.751 22.2831 148.751 22.2813C148.755 22.2719 148.757 22.2644 148.76 22.255C148.758 22.2625 148.755 22.2681 148.747 22.2719C148.747 22.2588 148.749 22.2456 148.747 22.2325C148.76 22.21 148.777 22.195 148.783 22.1706C148.781 22.1688 148.781 22.1706 148.779 22.1688L148.801 22.1219L148.83 22.1013L148.846 22.0863L148.848 22.0844L148.85 22.0825L148.826 22.0582L148.807 22.0394C148.82 22.0244 148.839 22.0169 148.845 21.9963C148.852 21.9738 148.85 21.9626 148.85 21.9457V21.9419L148.852 21.9326C148.852 21.9269 148.856 21.9232 148.856 21.8932C148.854 21.8913 148.854 21.8876 148.854 21.882C148.856 21.8763 148.861 21.8707 148.863 21.867C148.981 21.8688 149.098 21.8688 149.197 21.8651C149.465 21.8613 150.048 21.8182 150.481 21.7301C150.53 21.7226 150.567 21.7076 150.614 21.6982V21.7001L150.616 21.7095L150.618 21.7132C150.618 21.7132 150.62 21.7132 150.616 21.7132H150.614L150.622 21.777C150.631 21.8595 150.639 21.9288 150.646 21.9944C150.659 22.1238 150.671 22.24 150.687 22.4237C150.702 22.6168 150.706 22.6749 150.725 22.9018C150.732 22.9805 150.738 23.0555 150.759 23.2936C150.777 23.5223 150.789 23.6123 150.8 23.691C150.806 23.7379 150.819 23.8391 150.83 23.9178C150.839 23.9947 150.849 24.0716 150.852 24.0959C150.856 24.1184 150.864 24.1934 150.873 24.2684C150.882 24.3453 150.896 24.4409 150.901 24.4821C150.927 24.7052 150.965 24.947 151.034 25.3594C151.09 25.6125 151.134 25.8112 151.135 25.8206C151.137 25.83 151.18 25.9875 151.233 26.1862C151.284 26.3886 151.349 26.5911 151.368 26.6492C151.387 26.7036 151.419 26.7992 151.439 26.8592C151.46 26.9192 151.495 27.0167 151.518 27.0785C151.542 27.1423 151.576 27.2304 151.593 27.2735C151.61 27.3128 151.64 27.386 151.66 27.4366C151.683 27.4909 151.726 27.6015 151.758 27.684C151.822 27.8584 151.876 27.9915 151.902 28.0496C151.919 28.0796 151.925 28.1377 151.953 28.1414C151.987 28.1264 152.02 28.1133 152.052 28.1002C152.114 28.074 152.172 28.0496 152.23 28.0252C152.32 27.9858 152.408 27.9465 152.519 27.8977C152.781 27.7778 152.958 27.7046 153.344 27.6372C153.514 27.5978 153.841 27.5378 154.066 27.5153C154.094 27.5097 154.107 27.5191 154.062 27.5041L154.058 27.5003C154.056 27.5022 154.056 27.5003 154.056 27.4966L154.071 27.5022C154.079 27.5022 154.105 27.5078 154.141 27.5059C154.144 27.5059 154.146 27.5078 154.15 27.5078C154.161 27.5134 154.172 27.5153 154.184 27.5191L154.197 27.5209C154.201 27.5228 154.208 27.5247 154.21 27.5247C154.21 27.5322 154.21 27.5322 154.212 27.5247C154.216 27.5247 154.227 27.5303 154.229 27.5303C154.27 27.5322 154.281 27.5303 154.292 27.5266C154.298 27.5266 154.302 27.5303 154.306 27.5303C154.317 27.5322 154.33 27.5322 154.352 27.5303C154.354 27.5303 154.356 27.5284 154.356 27.5284C154.362 27.5284 154.369 27.5247 154.375 27.5228L154.39 27.5209C154.392 27.5209 154.394 27.5191 154.396 27.5191C154.405 27.5191 154.422 27.5247 154.425 27.5228C154.435 27.5209 154.435 27.5209 154.441 27.5191C154.452 27.5172 154.465 27.5134 154.47 27.5116C154.478 27.5341 154.476 27.5247 154.47 27.5097C154.48 27.5078 154.489 27.5134 154.499 27.5097C154.5 27.5097 154.5 27.5078 154.502 27.5078C154.519 27.5059 154.529 27.4966 154.547 27.4891C154.536 27.5078 154.529 27.5209 154.542 27.5041C154.559 27.5003 154.575 27.4947 154.59 27.4891C154.592 27.4891 154.598 27.4909 154.6 27.4909L154.632 27.4891L154.675 27.4797L154.701 27.4703L154.71 27.4666C154.714 27.4666 154.718 27.4666 154.72 27.4647C154.739 27.4666 154.746 27.4628 154.787 27.4497C154.789 27.4497 154.793 27.4497 154.793 27.4497C154.825 27.4459 154.845 27.4366 154.868 27.4253C154.885 27.4216 154.9 27.4122 154.922 27.3935C154.93 27.3897 154.937 27.3822 154.945 27.3766C154.949 27.3747 154.952 27.371 154.956 27.3672C154.962 27.3616 154.965 27.3616 154.971 27.356C154.973 27.3522 154.973 27.3485 154.975 27.3447C154.984 27.3316 154.992 27.3128 155.001 27.2922C155.003 27.2922 155.003 27.2885 155.005 27.2885C155.016 27.2716 155.018 27.2641 155.022 27.2529C155.027 27.2341 155.031 27.2229 155.033 27.206C155.055 27.2116 155.052 27.2116 155.033 27.206C155.033 27.2022 155.033 27.1929 155.033 27.1872C155.033 27.1816 155.035 27.176 155.037 27.1685C155.039 27.1629 155.037 27.1591 155.037 27.1516L155.04 27.1404C155.042 27.1366 155.04 27.1273 155.042 27.1216C155.065 27.1141 155.061 27.1141 155.042 27.1198C155.042 27.1198 155.042 27.1179 155.042 27.116C155.044 27.1085 155.044 27.1029 155.046 27.101C155.05 27.0804 155.048 27.0748 155.048 27.0673C155.046 27.0523 155.04 27.0429 155.037 27.0316C155.037 27.0279 155.037 27.0204 155.037 27.0148C155.037 27.011 155.042 27.0035 155.042 27.0017C155.046 26.9829 155.044 26.9754 155.044 26.9642C155.044 26.9548 155.046 26.9417 155.046 26.9342V26.9323L155.089 26.8967L155.087 26.8948L155.082 26.8892C155.076 26.8835 155.063 26.8742 155.052 26.8648C155.05 26.8442 155.046 26.8254 155.042 26.8142L155.039 26.8048L155.037 26.8011V26.7992C155.085 26.7767 155.059 26.7879 155.02 26.8067C155.02 26.8048 155.02 26.8029 155.022 26.8011C155.037 26.7954 155.042 26.7936 155.039 26.7936L155.035 26.7786L155.027 26.7448C155.024 26.7392 155.024 26.7317 155.016 26.7186C155.016 26.7167 155.016 26.7167 155.014 26.7148C155.012 26.6848 155.009 26.6586 154.999 26.6305V26.6267C154.995 26.5986 154.992 26.5855 154.986 26.5724C154.984 26.5686 154.98 26.5649 154.979 26.5611C154.979 26.5592 154.979 26.5592 154.979 26.5555C154.977 26.5442 154.967 26.5311 154.96 26.518C154.96 26.5161 154.962 26.518 154.96 26.5161C154.96 26.5142 154.958 26.5142 154.958 26.5124C154.958 26.4917 154.96 26.4749 154.954 26.4468C154.947 26.4374 154.943 26.4355 154.935 26.4261C154.93 26.4111 154.926 26.4018 154.919 26.3905C154.917 26.3849 154.919 26.383 154.915 26.3774C154.879 26.3155 154.842 26.3005 154.817 26.2912C154.81 26.2837 154.81 26.2818 154.797 26.2705C154.778 26.2555 154.752 26.2499 154.725 26.2462C154.682 26.2312 154.692 26.2462 154.675 26.2387C154.669 26.2368 154.665 26.233 154.66 26.233C154.626 26.2255 154.59 26.2312 154.555 26.2443C154.538 26.2387 154.515 26.2387 154.495 26.2405C154.491 26.2255 154.489 26.2237 154.493 26.2405C154.482 26.2424 154.472 26.2405 154.454 26.2443C154.45 26.2462 154.446 26.248 154.442 26.2499C154.42 26.2499 154.397 26.2499 154.379 26.2537C154.367 26.2649 154.367 26.263 154.364 26.2668C154.352 26.2649 154.339 26.2649 154.336 26.263C154.315 26.2612 154.306 26.263 154.296 26.2649C154.289 26.2668 154.285 26.2668 154.279 26.2687C154.253 26.2687 154.238 26.2705 154.221 26.2724C154.201 26.2762 154.184 26.2818 154.157 26.2912L154.146 26.2968C154.135 26.2968 154.124 26.2968 154.109 26.2987C154.107 26.2987 154.105 26.2968 154.103 26.2987C154.09 26.3005 154.084 26.3043 154.075 26.3062C154.034 26.3099 153.994 26.3193 153.981 26.3324C153.981 26.3343 153.979 26.3324 153.977 26.3343C153.94 26.3474 153.906 26.3661 153.887 26.3886L153.869 26.413L153.865 26.4168L153.861 26.4149V26.4093L153.865 26.3999C153.869 26.3886 153.876 26.3774 153.886 26.368C153.902 26.3474 153.927 26.3361 153.946 26.3324C153.959 26.3305 153.934 26.3343 153.931 26.3343L153.878 26.3399L153.777 26.3511C153.578 26.3774 153.349 26.4074 153.267 26.4186C153.158 26.4299 153.048 26.4561 152.945 26.4749C152.858 26.4917 152.778 26.5086 152.708 26.5236C152.665 26.5442 152.663 26.5086 152.663 26.5086H152.665C152.665 26.5086 152.663 26.503 152.661 26.4936C152.656 26.4824 152.665 26.4917 152.68 26.5067C152.673 26.488 152.663 26.4674 152.648 26.443C152.648 26.443 152.648 26.443 152.646 26.4393L152.643 26.4336L152.641 26.4318V26.4299L152.513 26.4093L152.446 26.398L152.429 26.3943L152.645 26.3905V26.3886V26.3849L152.643 26.3774C152.637 26.3399 152.62 26.2705 152.607 26.2274C152.504 25.8675 152.478 25.7119 152.433 25.4963C152.388 25.2676 152.345 25.0501 152.287 24.7521C152.273 24.6902 152.264 24.604 152.255 24.6152C152.242 24.6508 152.245 24.5571 152.24 24.5327C152.24 24.5327 152.23 24.4296 152.206 24.289C152.195 24.229 152.182 24.1578 152.168 24.0809L152.167 24.0753C152.219 24.0828 152.208 24.0809 152.167 24.0753L152.157 24.0209H152.155C152.153 23.9891 152.152 23.9572 152.148 23.9253L152.138 23.8616C152.035 23.2073 152.005 22.9055 151.962 22.7237C151.951 22.6618 151.906 22.4218 151.885 22.3112C151.878 22.2681 151.867 22.2156 151.863 22.195C151.85 22.1332 151.797 21.7863 151.784 21.6532C151.777 21.6045 151.782 21.6045 151.763 21.5145C151.767 21.4714 151.762 21.4452 151.765 21.4864C151.763 21.4901 151.765 21.4976 151.762 21.5051C151.76 21.4976 151.756 21.492 151.754 21.4845C151.76 21.4564 151.762 21.4245 151.756 21.3945C151.754 21.3945 151.754 21.3945 151.752 21.3945C151.754 21.3795 151.756 21.3645 151.758 21.3477C151.76 21.3458 151.76 21.3439 151.762 21.3439L151.771 21.3289C151.932 21.2727 152.086 21.2164 152.223 21.1358C152.36 21.0627 152.487 20.984 152.613 20.9034C152.622 20.9109 152.628 20.9146 152.637 20.9165C152.65 20.9296 152.661 20.9427 152.678 20.9521L152.684 20.9559L152.691 20.9596C152.705 20.9727 152.716 20.9802 152.721 20.984C152.731 20.9896 152.731 20.9877 152.736 20.9896C152.746 20.9952 152.75 21.0046 152.761 21.0084C152.763 21.0084 152.765 21.0084 152.766 21.0084C152.766 21.0102 152.778 21.0121 152.781 21.0215L152.804 21.0327C152.811 21.0402 152.821 21.0496 152.825 21.0533C152.838 21.0721 152.855 21.0871 152.871 21.0983C152.871 21.1002 152.873 21.1002 152.873 21.1021C152.905 21.1283 152.926 21.1396 152.95 21.149C152.999 21.1921 153.025 21.2033 153.04 21.2033C153.126 21.2464 153.1 21.2427 153.171 21.2858C153.256 21.3346 153.289 21.3533 153.323 21.3739C153.342 21.3852 153.381 21.4077 153.411 21.4227C153.439 21.4377 153.473 21.4545 153.486 21.4602C153.492 21.4639 153.524 21.4808 153.556 21.4939C153.586 21.507 153.625 21.522 153.644 21.5295C153.736 21.567 153.841 21.6008 154.024 21.6289C154.139 21.6457 154.234 21.6495 154.234 21.6495C154.244 21.6495 154.313 21.6495 154.403 21.6476C154.493 21.6457 154.587 21.6345 154.613 21.6307C154.637 21.627 154.68 21.6195 154.707 21.6139C154.735 21.6083 154.78 21.5989 154.808 21.5933C154.834 21.5876 154.874 21.5783 154.894 21.5726C154.913 21.567 154.947 21.5576 154.969 21.5501C154.997 21.5426 155.046 21.5276 155.082 21.5164C155.207 21.477 155.248 21.4564 155.333 21.4208C155.423 21.3945 155.515 21.3627 155.605 21.327C155.64 21.3252 155.644 21.3196 155.659 21.3177L155.695 21.3027C155.697 21.3027 155.697 21.3027 155.697 21.3008C155.713 21.2989 155.734 21.2971 155.77 21.2708L155.783 21.2652C155.785 21.2633 155.787 21.2614 155.788 21.2614C155.79 21.2614 155.796 21.2614 155.796 21.2614C155.831 21.2483 155.839 21.2408 155.848 21.2352L155.856 21.2296H155.858C155.861 21.2296 155.863 21.2239 155.867 21.2221C155.871 21.2202 155.876 21.2202 155.88 21.2164C155.888 21.2108 155.89 21.2071 155.895 21.2014C155.899 21.1996 155.903 21.1977 155.906 21.1958L155.905 21.2052L155.918 21.1977L155.944 21.1808C155.951 21.1752 155.957 21.1696 155.963 21.1658C155.966 21.164 155.968 21.1621 155.972 21.1602C155.981 21.1565 155.991 21.1527 155.996 21.149L156.036 21.1227L156.043 21.1171C156.055 21.1096 156.07 21.1002 156.081 21.0908C156.094 21.1021 156.092 21.1002 156.081 21.0908C156.315 20.9409 156.621 20.7047 156.883 20.3335C157.074 20.0635 157.23 19.7223 157.288 19.368C157.318 19.1937 157.331 19.01 157.316 18.8375C157.309 18.7231 157.309 18.7475 157.305 18.7119C157.292 18.6838 157.32 18.6744 157.342 18.6763C157.371 18.6725 157.348 18.6782 157.419 18.665L157.594 18.6332C157.702 18.6088 157.819 18.5844 157.922 18.5376C158.128 18.4513 158.304 18.3895 158.389 18.3276C158.576 18.2095 158.728 18.0783 158.859 17.917C158.994 17.7502 159.09 17.5777 159.137 17.4652C159.251 17.2384 159.273 17.1072 159.305 16.9741C159.318 16.916 159.328 16.8691 159.333 16.8279C159.421 16.8391 159.768 16.8785 160.198 16.8391C160.752 16.7735 161.09 16.6348 161.24 16.571C161.607 16.3948 161.742 16.1773 161.844 15.9261C161.947 15.6318 161.954 15.27 161.69 14.897ZM151.608 21.4733L151.602 21.4695L151.589 21.4602L151.584 21.4545L151.58 21.4527L151.587 21.4583C151.585 21.4564 151.582 21.4545 151.578 21.4508C151.585 21.4564 151.591 21.462 151.591 21.462L151.608 21.4733ZM158.565 15.6543C158.165 15.883 158.072 16.3723 158.074 16.4604C158.066 16.5129 158.06 16.556 158.055 16.5917C158.049 16.6179 158.045 16.6404 158.042 16.6591C158.034 16.6985 158.029 16.7191 158.025 16.736C157.995 16.8616 157.954 16.976 157.892 17.0734L157.877 17.0959C157.847 17.1316 157.882 17.0941 157.837 17.1466L157.792 17.1934C157.802 17.1859 157.768 17.2159 157.753 17.2234C157.689 17.2572 157.631 17.3021 157.577 17.3265C157.453 17.3603 157.288 17.4053 157.208 17.4259L157.136 17.4465C157.044 17.454 156.924 17.4784 156.797 17.5252C156.643 17.5459 156.345 17.7333 156.22 17.9545C156.094 18.142 156.079 18.3407 156.051 18.5019C156.041 18.6744 156.09 18.8263 156.096 18.8881C156.118 19.0962 156.1 19.2612 155.998 19.4918C155.905 19.6811 155.773 19.8329 155.62 19.9623C155.593 19.9698 155.571 19.981 155.55 19.9942C155.528 19.9979 155.507 20.0054 155.487 20.0167C155.455 20.0298 155.417 20.0485 155.421 20.0523C155.417 20.0579 155.408 20.056 155.4 20.0616C155.383 20.0654 155.367 20.071 155.357 20.0748C155.352 20.0766 155.35 20.0804 155.344 20.0823C155.322 20.0898 155.307 20.0973 155.295 20.1029C155.265 20.1198 155.245 20.1385 155.228 20.1554C155.224 20.1573 155.22 20.1573 155.218 20.1591C155.183 20.1704 155.147 20.1854 155.13 20.2041C155.119 20.2154 155.119 20.2173 155.113 20.2247C155.076 20.2547 155.05 20.2866 155.039 20.3129C155.035 20.3147 155.029 20.3147 155.025 20.3166L155.033 20.2922C155.04 20.2754 155.05 20.2604 155.061 20.2472C155.08 20.2229 155.125 20.2041 155.121 20.206L155.104 20.2116C155.084 20.2172 155.065 20.2229 155.05 20.2285C155.02 20.236 154.995 20.2435 154.971 20.251C154.982 20.2491 154.932 20.2585 154.92 20.2604C154.834 20.2716 154.731 20.2979 154.624 20.311L154.596 20.3147V20.3222C154.575 20.3222 154.553 20.3147 154.534 20.3185C154.515 20.3222 154.5 20.326 154.485 20.3316L154.517 20.4178C154.515 20.4178 154.514 20.4178 154.512 20.4178C154.508 20.4066 154.502 20.3935 154.499 20.3822C154.489 20.3485 154.484 20.326 154.484 20.326L154.296 20.3204H154.251C154.259 20.3204 154.315 20.3297 154.343 20.3616C154.345 20.3822 154.379 20.3803 154.364 20.4103C154.36 20.4103 154.354 20.4085 154.351 20.4085C154.324 20.3878 154.294 20.3672 154.262 20.3503C154.229 20.3316 154.193 20.3185 154.159 20.3091L154.111 20.2979L154.099 20.296H154.097L154.096 20.3035C154.079 20.2997 154.064 20.296 154.049 20.2941C154.039 20.2904 154.037 20.2866 154.026 20.281C154.024 20.281 154.017 20.281 154.013 20.281C154.011 20.2791 154.009 20.2772 154.007 20.2754C153.991 20.266 153.976 20.2604 153.968 20.2585C153.966 20.2585 153.966 20.2585 153.966 20.2585C153.959 20.2529 153.946 20.2472 153.929 20.2416C153.934 20.2322 153.934 20.2304 153.929 20.2416C153.921 20.2379 153.912 20.236 153.901 20.2341C153.891 20.2304 153.882 20.2266 153.871 20.2229C153.85 20.2098 153.837 20.2023 153.812 20.1929L153.796 20.1891C153.792 20.1854 153.786 20.1816 153.782 20.1798L153.764 20.1704C153.766 20.146 153.764 20.1498 153.762 20.1704L153.754 20.1666C153.747 20.1648 153.739 20.161 153.717 20.1554C153.715 20.1535 153.711 20.1535 153.709 20.1516C153.7 20.1479 153.687 20.1404 153.679 20.1385C153.663 20.1329 153.648 20.131 153.627 20.131C153.606 20.1273 153.582 20.131 153.556 20.1366C154.056 19.6436 154.405 19.1299 154.686 18.5301C155.01 17.9302 155.226 17.214 155.462 16.2805C155.507 16.0649 155.575 15.8062 155.627 15.5175C155.667 15.225 155.708 14.9063 155.751 14.5783C155.863 13.9334 155.873 13.236 155.828 12.683C155.972 12.8292 156.092 12.9511 156.33 13.1648C156.454 13.2698 156.579 13.3935 157.024 13.7159C157.432 14.0346 157.614 14.1283 157.764 14.2221C157.851 14.2746 158.047 14.3927 158.201 14.4864C158.355 14.5801 158.507 14.672 158.542 14.6945C158.578 14.717 158.724 14.807 158.872 14.897C159.02 14.9926 159.212 15.09 159.292 15.1275C159.496 15.2288 159.706 15.3338 159.958 15.4575C159.993 15.4744 160.033 15.4931 160.076 15.5137C160.106 15.5268 160.083 15.5175 160.089 15.5212C160.025 15.5268 159.89 15.5362 159.813 15.5343C159.641 15.5287 159.536 15.525 159.53 15.525C159.525 15.5268 159.453 15.5212 159.302 15.5025C159.144 15.4762 158.812 15.4894 158.565 15.6543ZM148.224 20.3972C148.213 20.3953 148.014 20.3822 147.697 20.311C147.384 20.236 146.947 20.131 146.544 19.8873C145.765 19.4299 145.399 18.8431 145.174 18.4194C144.957 17.962 144.852 17.5496 144.874 17.0322C144.852 16.0161 145.271 14.9794 145.774 13.5903C145.896 13.2454 146.018 12.9154 146.093 12.6642C146.166 12.4149 146.213 12.2537 146.216 12.2387C146.211 12.2218 146.336 11.905 146.393 11.3576C146.419 11.0858 146.471 10.7596 146.484 10.4109C146.479 10.0341 146.462 9.71539 146.443 9.28797C146.329 7.62514 146.25 6.45722 146.19 5.58738C146.136 4.71004 146.104 4.17576 146.216 3.76521C146.244 3.64336 146.333 3.32091 146.544 3.02659C146.749 2.7304 147.069 2.47545 147.306 2.35172C147.499 2.25986 147.72 2.153 147.797 2.11739C147.919 2.05177 148.363 1.83056 148.86 1.81181C149.353 1.77245 149.849 2.02365 150.082 2.20549C150.356 2.40795 150.686 2.67416 150.815 2.77726C150.946 2.88225 151.398 3.23656 151.852 3.63773C151.865 3.64898 151.876 3.65836 151.889 3.66961C151.902 3.68648 151.915 3.70335 151.928 3.72022C151.928 3.74271 151.934 3.74272 151.934 3.75584L151.938 3.77459L151.94 3.78021V3.78208L151.983 3.76896C151.985 3.77084 151.983 3.77458 151.985 3.77646C151.987 3.78021 151.988 3.78021 151.99 3.78396C151.979 3.79333 151.975 3.80458 152.003 3.8177C151.975 3.82145 151.983 3.80645 151.996 3.78958C152.015 3.81583 152.028 3.82707 152.037 3.83645C152.048 3.84395 152.054 3.84582 152.062 3.85145C152.06 3.85332 152.058 3.8552 152.062 3.85145C152.071 3.85707 152.08 3.86269 152.086 3.86457L152.108 3.87769C152.112 3.87582 152.116 3.87769 152.122 3.88144C152.138 3.90206 152.15 3.91519 152.159 3.92081C152.159 3.93393 152.161 3.94518 152.161 3.95643C152.163 4.01829 152.167 4.09703 152.168 4.13077C152.167 4.31636 152.198 4.50945 152.255 4.84127C152.29 5.04561 152.318 5.20495 152.32 5.21433C152.322 5.2237 152.346 5.3493 152.376 5.51052C152.408 5.66987 152.44 5.83859 152.45 5.88733C152.459 5.93232 152.476 6.00918 152.495 6.05605C152.51 6.10666 152.536 6.18727 152.553 6.23789C152.57 6.28851 152.592 6.35787 152.603 6.39161C152.615 6.42348 152.635 6.48535 152.65 6.52847C152.665 6.57533 152.693 6.66531 152.716 6.73093C152.793 6.96901 152.821 7.05899 152.888 7.27083C152.96 7.49766 153.018 7.65514 153.139 7.95696C153.153 7.9907 153.169 8.03382 153.186 8.07881L153.213 8.14629V8.14817C153.214 8.16317 153.222 8.18191 153.233 8.20441C153.235 8.21191 153.233 8.21753 153.235 8.22503V8.22691C153.235 8.22878 153.235 8.23253 153.235 8.2344C153.233 8.24753 153.233 8.25503 153.233 8.25315C153.235 8.29627 153.239 8.29252 153.241 8.30564C153.25 8.33189 153.254 8.34126 153.261 8.35251L153.263 8.35626C153.265 8.37501 153.269 8.39375 153.289 8.43312C153.293 8.43874 153.299 8.44437 153.303 8.44999C153.306 8.45562 153.308 8.46124 153.312 8.46499C153.316 8.47624 153.321 8.49686 153.323 8.50248L153.34 8.52685L153.346 8.53435L153.348 8.53247C153.349 8.53622 153.351 8.54185 153.355 8.5456C153.361 8.5606 153.363 8.57747 153.379 8.59622C153.389 8.60747 153.402 8.60746 153.411 8.61496C153.411 8.61871 153.411 8.62059 153.411 8.62434C153.4 8.62246 153.387 8.61871 153.383 8.60747C153.374 8.58872 153.4 8.63371 153.409 8.64308L153.421 8.6562L153.428 8.67495V8.67683C153.447 8.75369 153.466 8.82867 153.483 8.90928L153.49 8.9374C153.477 8.93365 153.475 8.93365 153.49 8.9374L153.503 8.98615C153.505 9.00114 153.499 8.9599 153.511 8.95053C153.503 8.94865 153.509 8.94865 153.513 8.95053V8.9524L153.511 8.96365C153.513 8.97302 153.509 9.00302 153.52 9.04614C153.52 9.05926 153.516 9.0705 153.518 9.08363L153.52 9.09487V9.09675V9.09863C153.505 9.10238 153.499 9.10238 153.52 9.09863C153.52 9.10238 153.516 9.108 153.516 9.11362V9.1155L153.514 9.12112C153.513 9.13612 153.513 9.16049 153.513 9.16049L153.516 9.18861L153.524 9.21673L153.531 9.23735C153.531 9.24672 153.531 9.25422 153.531 9.26547C153.533 9.27484 153.535 9.28609 153.539 9.29922C153.537 9.30484 153.539 9.31421 153.539 9.32171C153.539 9.32359 153.539 9.32546 153.539 9.32734C153.539 9.33483 153.539 9.34233 153.537 9.34795C153.539 9.39857 153.544 9.3967 153.546 9.40982L153.554 9.43044V9.43232C153.537 9.43981 153.544 9.43607 153.556 9.43232C153.558 9.46793 153.574 9.49793 153.601 9.52605L153.576 9.56542L153.582 9.56917C153.588 9.57104 153.593 9.57479 153.604 9.58042C153.604 9.58042 153.604 9.58229 153.604 9.58416C153.61 9.59729 153.608 9.60291 153.631 9.63478C153.633 9.63665 153.64 9.6404 153.642 9.64228C153.651 9.67602 153.663 9.70602 153.685 9.72102C153.696 9.72664 153.694 9.72664 153.696 9.72851C153.698 9.73976 153.698 9.74913 153.7 9.75851C153.7 9.76225 153.698 9.76601 153.702 9.76788C153.708 9.79413 153.713 9.8035 153.719 9.811L153.732 9.84661C153.749 9.88223 153.758 9.90098 153.794 9.93847L153.799 9.9441C153.803 9.95535 153.814 9.97034 153.822 9.98347C153.827 10.0172 153.842 10.0585 153.865 10.0772C153.887 10.0997 153.899 10.1053 153.908 10.1109C153.921 10.1259 153.931 10.1484 153.944 10.1559C153.955 10.1616 153.962 10.1634 153.972 10.1672C153.974 10.1709 153.976 10.1747 153.977 10.1784C153.944 10.1803 153.908 10.1559 153.902 10.1353L153.919 10.1766C154.011 10.4165 154.111 10.6827 154.189 10.947C154.306 11.3501 154.637 12.4355 154.517 13.7515C154.529 14.4039 154.375 15.1032 154.227 15.7893C154.069 16.4735 153.876 17.1391 153.625 17.6958C153.276 18.5525 152.528 19.3137 152.202 19.4974L151.912 19.7242C151.808 19.788 151.696 19.8348 151.589 19.8929C151.375 20.0035 151.164 20.1179 150.933 20.1816C150.481 20.3185 150.031 20.4103 149.638 20.4141C148.856 20.4947 148.322 20.3972 148.278 20.401C148.26 20.401 148.239 20.3991 148.224 20.3972ZM141.412 15.6281C141.275 15.48 141.149 15.3075 141.098 15.1388C141.072 15.0507 141.039 14.9888 141.024 14.9026C141.012 14.8613 141.022 14.8032 141.02 14.777C141.085 14.3758 141.241 13.789 141.07 13.3672C141.027 13.2641 140.988 13.1685 140.947 13.086C140.892 13.0129 140.842 12.9454 140.8 12.8986C140.716 12.8067 140.697 12.773 140.686 12.7655C140.682 12.7617 140.675 12.7542 140.673 12.7505C140.684 12.758 140.6 12.6736 140.553 12.4993C140.553 12.503 140.555 12.4899 140.555 12.4899V12.488L140.525 12.3512L140.527 12.353C140.534 12.3605 140.542 12.3718 140.547 12.3849C140.56 12.4055 140.56 12.4486 140.559 12.4543L140.562 12.4299C140.572 12.3905 140.581 12.3437 140.592 12.2931L140.611 12.2237L140.62 12.1899L140.624 12.1731L140.626 12.1637L140.628 12.1599C140.622 12.1562 140.65 12.1674 140.581 12.1356C140.759 11.9312 140.742 11.7513 140.832 11.6425C140.902 11.5338 141.003 11.352 141.046 11.217C141.14 10.9283 141.147 10.6771 141.072 10.3771C141.035 10.2347 140.973 10.0959 140.89 9.9666C140.83 9.87099 140.774 9.76225 140.725 9.64602C140.626 9.41357 140.551 9.14549 140.512 8.82493C140.493 8.66371 140.484 8.51373 140.482 8.40125C140.482 8.28877 140.482 8.21566 140.482 8.21004C140.482 8.21004 140.484 8.16879 140.485 8.1013C140.489 8.05256 140.495 7.9832 140.5 7.89884C140.504 7.8876 140.502 7.81823 140.519 7.82573C140.527 7.84073 140.532 7.85572 140.534 7.86135C140.549 7.89134 140.564 7.91759 140.577 7.94383C140.65 8.07131 140.72 8.18754 140.789 8.29252C140.928 8.50248 141.059 8.6712 141.179 8.80993C141.421 9.0855 141.61 9.24485 141.775 9.36482C141.884 9.45106 142.349 9.75475 142.589 9.88036C142.683 9.9291 142.789 9.98722 142.829 10.006C142.953 10.0809 143.676 10.409 143.959 10.5121C144.111 10.5796 144.302 10.6396 144.377 10.6658C144.389 10.6696 144.404 10.6733 144.465 10.694C144.473 10.6958 144.501 10.7033 144.539 10.7071C144.546 10.7108 144.55 10.7183 144.557 10.7221L144.574 10.7277C144.565 10.724 144.555 10.7183 144.548 10.709C144.55 10.709 144.55 10.709 144.552 10.709C144.557 10.709 144.565 10.709 144.572 10.709C144.593 10.724 144.615 10.739 144.64 10.7483L144.675 10.7596V10.7577L144.696 10.769C144.72 10.7839 144.765 10.8008 144.79 10.8102C144.793 10.8139 144.795 10.8177 144.799 10.8233C144.816 10.8439 144.82 10.8439 144.825 10.8477L144.827 10.8496L144.852 10.8233C144.878 10.8402 144.898 10.8458 144.912 10.8514C144.938 10.8552 144.951 10.8552 144.962 10.8552C144.96 10.8646 144.958 10.8814 144.958 10.8908C144.887 11.905 144.385 12.9492 143.77 14.8613C143.554 15.4369 143.462 16.018 143.414 16.4342C143.412 16.4511 143.412 16.4623 143.41 16.4792C143.393 16.481 143.376 16.4792 143.357 16.4829C143.356 16.4829 143.354 16.4867 143.352 16.4867C143.344 16.4867 143.339 16.4867 143.337 16.4867C143.333 16.4867 143.327 16.4885 143.324 16.4885C143.326 16.4904 143.326 16.4942 143.327 16.496C143.32 16.4942 143.316 16.4942 143.309 16.4942C143.309 16.4923 143.309 16.4923 143.309 16.4904C143.305 16.4904 143.297 16.4904 143.294 16.4923C143.288 16.4923 143.279 16.4904 143.275 16.4904C143.269 16.4904 143.267 16.4923 143.262 16.4923C143.254 16.4923 143.247 16.4923 143.239 16.4904C143.207 16.4904 143.189 16.4923 143.164 16.496C143.155 16.4979 143.144 16.5017 143.131 16.5054C143.129 16.5054 143.129 16.5035 143.127 16.5035C143.119 16.5035 143.108 16.5092 143.101 16.5092C143.095 16.5073 143.093 16.5054 143.088 16.5035C143.082 16.5017 143.078 16.5035 143.073 16.5035C143.071 16.5035 143.071 16.5035 143.069 16.5035C143.052 16.5017 143.033 16.4979 143.016 16.5017C142.977 16.5092 142.958 16.5204 142.947 16.5279L142.945 16.5298C142.928 16.5354 142.908 16.5317 142.896 16.5392C142.879 16.5485 142.868 16.5598 142.859 16.5692C142.851 16.5504 142.876 16.5504 142.874 16.5373C142.889 16.5223 142.908 16.5129 142.926 16.5092C142.977 16.5054 142.954 16.5092 142.938 16.5035L142.894 16.496C142.838 16.4829 142.773 16.4773 142.707 16.4511C142.576 16.4023 142.411 16.3742 142.265 16.2823C141.951 16.1511 141.652 15.8718 141.412 15.6281ZM144.677 10.5721L144.679 10.5702L144.649 10.589L144.666 10.5777L144.677 10.5721ZM144.709 10.6808L144.703 10.6883L144.707 10.6846L144.709 10.6808ZM144.75 10.6865C144.756 10.7465 144.782 10.7821 144.777 10.7802C144.778 10.7839 144.78 10.7839 144.782 10.7877C144.765 10.769 144.748 10.7427 144.748 10.709C144.747 10.7015 144.748 10.694 144.75 10.6865ZM142.996 16.6798C142.992 16.6779 142.99 16.676 142.988 16.6741C142.988 16.6741 142.988 16.6741 142.99 16.6741L142.977 16.6648C142.977 16.6648 142.977 16.6648 142.975 16.6629C142.984 16.6723 142.992 16.6779 142.996 16.6798ZM154.724 5.0981C154.497 5.30993 154.276 5.59301 154.216 5.65487C154.157 5.72423 154.052 5.84234 154.006 5.92482C153.964 5.98856 153.902 6.08042 153.85 6.1629C153.816 5.98481 153.796 5.87795 153.766 5.72236C153.749 5.6305 153.732 5.54427 153.715 5.44866C153.702 5.38117 153.709 5.41116 153.689 5.38867C153.657 5.42054 153.685 5.24057 153.661 5.13934C153.648 5.06623 153.636 5.01561 153.625 4.97062C153.625 4.96874 153.625 4.96687 153.625 4.96499C153.625 4.93312 153.619 4.90875 153.616 4.89001C153.614 4.88251 153.612 4.87501 153.61 4.86939L153.608 4.86376V4.86189L153.393 4.93313H153.394L153.4 4.93125C153.411 4.9275 153.481 4.89938 153.606 4.85252C153.606 4.84689 153.604 4.83752 153.603 4.82815C153.599 4.80752 153.595 4.77565 153.589 4.74004C153.578 4.6688 153.561 4.56569 153.55 4.43259C153.531 4.25824 153.514 4.1214 153.503 4.00704C153.511 4.00517 153.516 4.00142 153.52 4.00329L153.554 3.98829L153.561 3.98455C153.876 3.98455 154.071 3.98455 154.247 3.98455C154.448 3.99017 154.628 3.98642 154.898 3.97517C155.198 3.96767 155.288 3.9658 155.625 3.95643C155.734 3.9583 155.852 3.9508 156.223 3.90394C156.338 3.89082 156.323 3.89456 156.34 3.89268C156.351 3.89268 156.362 3.89268 156.37 3.89268C156.383 3.89268 156.392 3.89268 156.401 3.89268C156.409 3.89268 156.424 3.89268 156.435 3.89268C156.446 3.89268 156.446 3.89269 156.443 3.89644C156.443 3.90206 156.422 3.92081 156.403 3.92643C156.388 3.93393 156.368 3.9433 156.36 3.94705C156.338 3.95455 156.328 3.9583 156.325 3.9583C156.171 4.06328 155.993 4.18513 155.768 4.33886C155.453 4.55632 155.202 4.73066 155.194 4.73628C155.19 4.73816 155.142 4.77378 155.061 4.83189C154.988 4.87876 154.815 5.00249 154.724 5.0981ZM153.213 8.15192C153.213 8.15004 153.213 8.15192 153.211 8.14629C153.205 8.1388 153.216 8.07318 153.213 8.13505C153.211 8.13505 153.211 8.14442 153.213 8.15192ZM152.258 3.98642C152.258 3.98829 152.257 3.99392 152.257 3.99579C152.251 3.99767 152.253 3.99204 152.258 3.98642ZM153.419 4.99686H153.415H153.409C153.406 4.99499 153.4 4.99311 153.396 4.98936L153.394 4.98749L153.419 4.99686ZM151.942 3.60211L151.949 3.59837C151.953 3.59837 151.945 3.60211 151.942 3.60211ZM143.301 17.7258C143.303 17.7258 143.303 17.724 143.303 17.724L143.307 17.7221C143.309 17.7202 143.307 17.7221 143.309 17.7221C143.305 17.7221 143.303 17.7239 143.301 17.7258ZM148.603 22.1744C148.601 22.1706 148.599 22.1688 148.597 22.165L148.592 22.1538L148.603 22.1744ZM148.59 22.1538C148.605 22.1781 148.599 22.1688 148.59 22.1538ZM151.58 21.537C151.582 21.5351 151.583 21.5333 151.585 21.5314C151.583 21.5351 151.582 21.5351 151.58 21.537ZM154.632 8.71807L154.634 8.71057L154.641 8.6862C154.637 8.69557 154.635 8.70682 154.632 8.71807ZM153.571 2.86162C153.569 2.85975 153.567 2.856 153.567 2.85413C153.567 2.85788 153.569 2.85975 153.571 2.86162ZM153.494 2.82788C153.494 2.82788 153.492 2.82976 153.492 2.83163L153.473 2.85037L153.471 2.85225L153.494 2.82788ZM148.28 27.1179L148.273 27.1123L148.258 27.0991L148.254 27.0954L148.28 27.1179ZM154.034 26.5124L154.021 26.5067C154.019 26.5067 154.019 26.5049 154.017 26.5049C154.022 26.5086 154.026 26.5086 154.034 26.5124ZM154.928 9.10237C154.928 9.1005 154.926 9.09862 154.926 9.09675C154.932 9.09675 154.93 9.1005 154.928 9.10237ZM153.4 2.75289C153.402 2.76414 153.402 2.77351 153.4 2.78289H153.398C153.393 2.76039 153.387 2.74727 153.383 2.73227C153.372 2.70978 153.363 2.69478 153.359 2.6929C153.338 2.66853 153.329 2.65728 153.321 2.65166C153.353 2.66666 153.398 2.69665 153.4 2.75289ZM148.539 26.9398C148.539 26.936 148.539 26.936 148.539 26.9398ZM147.958 24.7108L147.954 24.7089L147.945 24.7052L147.926 24.6958L147.909 24.6808L147.902 24.6714L147.898 24.6658L147.896 24.6639C147.881 24.6527 147.875 24.6489 147.868 24.6433C147.885 24.6564 147.922 24.6827 147.962 24.7108C147.96 24.7108 147.958 24.7108 147.958 24.7108ZM150.611 21.7076C150.609 21.7076 150.609 21.7076 150.611 21.7076ZM152.032 24.0547L152.02 24.0584H152.009L151.987 24.0566L151.962 24.0491L151.949 24.0434C151.93 24.0416 151.975 24.0472 152.032 24.0547Z"
        fill="#292A2B" />
    <path
        d="M153.533 2.67375C153.522 2.67187 153.509 2.67188 153.516 2.67188C153.522 2.67188 153.528 2.67187 153.533 2.67375Z"
        fill="#292A2B" />
    <path d="M144.682 10.7565L144.679 10.7549V10.7565H144.682Z" fill="#292A2B" />
    <path d="M142.988 16.676C142.977 16.6683 142.969 16.6626 142.988 16.676Z" fill="#292A2B" />
    <path d="M144.593 10.7293L144.578 10.7236V10.7255L144.593 10.7293Z" fill="#292A2B" />
    <path
        d="M143.313 16.4829C143.316 16.4829 143.324 16.481 143.328 16.481C143.32 16.4584 143.314 16.4547 143.313 16.4829Z"
        fill="#292A2B" />
</svg>